<?xml version="1.0" encoding="UTF-8" standalone="no"?>
<svg version="1.1" xmlns="http://www.w3.org/2000/svg" xmlns:xlink="http://www.w3.org/1999/xlink">

  <symbol id="view" fill-rule="evenodd" viewBox="0 0 20 20"><path d="M10,4.4C3.439,4.4,0,9.232,0,10c0,0.766,3.439,5.6,10,5.6c6.56,0,10-4.834,10-5.6C20,9.232,16.56,4.4,10,4.4z M10,14.307 c-2.455,0-4.445-1.928-4.445-4.307c0-2.379,1.99-4.309,4.445-4.309c2.455,0,4.444,1.93,4.444,4.309 C14.444,12.379,12.455,14.307,10,14.307z M10,10c-0.407-0.447,0.663-2.154,0-2.154c-1.228,0-2.223,0.965-2.223,2.154 c0,1.189,0.995,2.154,2.223,2.154c1.227,0,2.223-0.965,2.223-2.154C12.223,9.453,10.346,10.379,10,10z"/></symbol>

  <symbol id="caret-right" fill-rule="evenodd" viewBox="0 0 20 20"><path d="M9.163,4.516c0.418,0.408,4.502,4.695,4.502,4.695C13.888,9.43,14,9.715,14,10s-0.112,0.57-0.335,0.787 c0,0-4.084,4.289-4.502,4.695c-0.418,0.408-1.17,0.436-1.615,0c-0.446-0.434-0.481-1.041,0-1.574L11.295,10L7.548,6.092 c-0.481-0.533-0.446-1.141,0-1.576C7.993,4.08,8.745,4.107,9.163,4.516z"/></symbol>

  <symbol id="new-user" fill-rule="evenodd" viewBox="0 0 20 20"><path d="M15.989,19.129C16,17,13.803,15.74,11.672,14.822c-2.123-0.914-2.801-1.684-2.801-3.334c0-0.989,0.648-0.667,0.932-2.481 c0.12-0.752,0.692-0.012,0.802-1.729c0-0.684-0.313-0.854-0.313-0.854s0.159-1.013,0.221-1.793c0.064-0.817-0.398-2.56-2.301-3.095 C7.88,1.195,7.655,0.654,8.679,0.112c-2.24-0.104-2.761,1.068-3.954,1.93c-1.015,0.756-1.289,1.953-1.24,2.59 c0.065,0.78,0.223,1.793,0.223,1.793s-0.314,0.17-0.314,0.854c0.11,1.718,0.684,0.977,0.803,1.729 C4.481,10.822,5.13,10.5,5.13,11.489c0,1.65-0.212,2.21-2.336,3.124C0.663,15.53,0,17,0.011,19.129C0.014,19.766,0,20,0,20h16 C16,20,15.986,19.766,15.989,19.129z M17,10V7h-2v3h-3v2h3v3h2v-3h3v-2H17z"/></symbol>

  <symbol id="play" fill-rule="evenodd" viewBox="0 0 20 20"><path d="M15,10.001c0,0.299-0.305,0.514-0.305,0.514l-8.561,5.303C5.51,16.227,5,15.924,5,15.149V4.852 c0-0.777,0.51-1.078,1.135-0.67l8.561,5.305C14.695,9.487,15,9.702,15,10.001z"/></symbol>

  <symbol id="pause" fill-rule="evenodd" viewBox="0 0 20 20"><path d="M15,3h-2c-0.553,0-1,0.048-1,0.6V16.4c0,0.552,0.447,0.6,1,0.6h2c0.553,0,1-0.048,1-0.6V3.6C16,3.048,15.553,3,15,3z M7,3H5 C4.447,3,4,3.048,4,3.6V16.4C4,16.952,4.447,17,5,17h2c0.553,0,1-0.048,1-0.6V3.6C8,3.048,7.553,3,7,3z"/></symbol>

  <symbol id="fullscreen" fill-rule="evenodd" viewBox="0 0 20 20"><path d="M6.987,10.987l-2.931,3.031L2,11.589V18h6.387l-2.43-2.081l3.03-2.932L6.987,10.987z M11.613,2l2.43,2.081l-3.03,2.932l2,2 l2.931-3.031L18,8.411V2H11.613z"/></symbol>

  <symbol id="info" fill-rule="evenodd" viewBox="0 0 20 20"><path d="M10,0.4c-5.303,0-9.601,4.298-9.601,9.6c0,5.303,4.298,9.601,9.601,9.601c5.301,0,9.6-4.298,9.6-9.601 C19.6,4.698,15.301,0.4,10,0.4z M10.896,3.866c0.936,0,1.211,0.543,1.211,1.164c0,0.775-0.62,1.492-1.679,1.492 c-0.886,0-1.308-0.445-1.282-1.182C9.146,4.719,9.665,3.866,10.896,3.866z M8.498,15.75c-0.64,0-1.107-0.389-0.66-2.094l0.733-3.025 c0.127-0.484,0.148-0.678,0-0.678c-0.191,0-1.022,0.334-1.512,0.664L6.74,10.094c1.555-1.299,3.343-2.061,4.108-2.061 c0.64,0,0.746,0.756,0.427,1.92l-0.84,3.18c-0.149,0.562-0.085,0.756,0.064,0.756c0.192,0,0.82-0.232,1.438-0.719l0.362,0.486 C10.786,15.168,9.137,15.75,8.498,15.75z"/></symbol>

  <symbol id="file" fill-rule="evenodd" viewBox="0 0 20 20"><path d="M12.0666667,2.53333333 L9.62222222,0.0888888889 L9.53333333,0 L0,0 L0,20 L14.5777778,20 L14.5777778,5.04444444 L12.0666667,2.53333333 L12.0666667,2.53333333 Z M9.73333333,1.04444444 L13.5555556,4.86666667 L9.73333333,4.86666667 L9.73333333,1.04444444 L9.73333333,1.04444444 Z M14,19.3777778 L0.644444444,19.3777778 L0.644444444,0.6 L9.13333333,0.6 L9.13333333,5.17777778 C9.13333333,5.35555556 9.26666667,5.48888889 9.44444444,5.48888889 L14.0222222,5.48888889 L14.0222222,19.3777778 L14,19.3777778 Z"></path></symbol>

  <symbol id="tick" fill-rule="evenodd" viewBox="0 0 20 20"><path d="M15.9201605,6.14148514 C15.7308608,5.95274512 15.4250152,5.95274512 15.2357155,6.14204479 L8.55706084,12.8201398 L6.1959217,10.4594204 C6.00662203,10.2701208 5.70077644,10.2701208 5.51147677,10.4590007 L4.14160753,11.8288699 C3.95272759,12.0181696 3.95272759,12.3244349 4.14202726,12.5138745 L8.04022936,16.4119367 C8.18028034,16.5521276 8.36174499,16.7362506 8.54712715,16.7362506 C8.73250931,16.7362506 8.93370142,16.5521276 9.0737524,16.4119367 L17.28961,8.19621905 C17.4789096,8.00705929 17.4789096,7.70051414 17.2900297,7.51135438 L15.9201605,6.14148514 Z"></path></symbol>

  <symbol id="pencil" fill-rule="evenodd" viewBox="0 0 20 20"><path d="M14.324122,5.92039141 C12.9818631,4.94310789 12.0265489,4.96436859 11.6636997,5.02318986 C11.5616483,5.03948973 11.4758968,5.098311 11.4156582,5.18122773 L8.14151029,9.69841788 L6.53774479,11.9116568 C6.34143765,12.1823764 6.22804725,12.5041216 6.21033,12.8379146 L6.00055776,16.8235873 C5.98567527,17.1106067 6.27127734,17.3182529 6.53916217,17.2154928 L10.2640369,15.7910259 C10.5779866,15.6705486 10.8508322,15.4614851 11.047848,15.1893481 L12.3546724,13.385732 L15.9236353,8.46104511 C15.9867087,8.37387624 16.0122216,8.26757274 15.9945043,8.16126924 C15.9349744,7.78849829 15.6493723,6.88420983 14.324122,5.92039141 L14.324122,5.92039141 Z M9.67891764,15.4760417 L8.48624262,15.9366489 C8.43953974,15.9547463 8.38758277,15.9401516 8.35722589,15.9004542 C8.20369015,15.7048858 8.0209651,15.5110688 7.72965583,15.2991545 C7.43834656,15.0878239 7.19782669,14.9734018 6.96489603,14.8870015 C6.91819314,14.8694879 6.88842005,14.8251202 6.89133898,14.7749146 L6.96256088,13.4987581 L7.28305946,13.0579996 C7.28305946,13.0579996 8.00053258,12.9593398 8.9369255,13.6406182 C9.87215084,14.3213128 10,15.0346994 10,15.0346994 L9.67891764,15.4760417 L9.67891764,15.4760417 Z"></path></symbol>

  <symbol id="cross" fill-rule="evenodd" viewBox="0 0 20 20"><path d="M14.48,16.94 L16.38,15.04 L13.2,11.94 L16.38,8.84 L14.52,6.98 L11.42,10.16 L8.32,6.98 L6.42,8.88 L9.6,11.98 L6.42,15.08 L8.28,16.94 L11.38,13.76 L14.48,16.94 Z"></path></symbol>

  <symbol id="video" fill-rule="evenodd" viewBox="0 0 20 20"><path d="M20,5V3.799C20,3.357,19.643,3,19.201,3h-18.4C0.358,3,0,3.357,0,3.799V5h2v2H0v2h2v2H0v2h2v2H0v1.199 C0,16.641,0.358,17,0.801,17h18.4C19.643,17,20,16.641,20,16.199V15h-2v-2h2v-2h-2V9h2V7h-2V5H20z M8,13V7l5,3L8,13z"/></symbol>

  <symbol id="lock" fill-rule="evenodd" viewBox="0 0 20 20"><path d="M15.8,8H14V5.6C14,2.703,12.665,1,10,1C7.334,1,6,2.703,6,5.6V8H4C3.447,8,3,8.646,3,9.199V17 c0,0.549,0.428,1.139,0.951,1.307l1.197,0.387C5.672,18.861,6.55,19,7.1,19H12.9c0.549,0,1.428-0.139,1.951-0.307l1.196-0.387 C16.571,18.139,17,17.549,17,17V9.199C17,8.646,16.352,8,15.8,8z M12,8H8V5.199C8,3.754,8.797,3,10,3c1.203,0,2,0.754,2,2.199V8z"/></symbol>

  <symbol id="book" fill-rule="evenodd" viewBox="0 0 20 20"><path d="M17,5.95v10.351c0,0.522-0.452,0.771-1,1.16c-0.44,0.313-1-0.075-1-0.587c0,0,0-9.905,0-10.114
  c0-0.211-0.074-0.412-0.314-0.535c-0.24-0.123-7.738-4.065-7.738-4.065C6.827,2.115,6.299,1.782,5.595,2.144
  C4.926,2.488,4.562,2.862,4.469,3.038l8.18,4.482C12.866,7.634,13,7.81,13,8.036v10.802c0,0.23-0.142,0.476-0.369,0.585
  c-0.104,0.052-0.219,0.077-0.333,0.077c-0.135,0-0.271-0.033-0.386-0.104c-0.215-0.131-7.774-4.766-8.273-5.067
  c-0.24-0.144-0.521-0.439-0.527-0.658L3,3.385c0-0.198-0.023-0.547,0.289-1.032c0.697-1.084,3.129-2.317,4.36-1.678l8.999,4.555
  C16.865,5.342,17,5.566,17,5.95z"/></symbol>

  <symbol id="mortarboard" fill-rule="evenodd" viewBox="0 0 20 20"><path d="M3.302,12.238c0.464,1.879,1.054,2.701,3.022,3.562C8.293,16.66,9.228,17.6,10,17.6c0.771,0,1.648-0.822,3.616-1.684
  c1.969-0.861,1.443-1.123,1.907-3.002L10,15.6L3.302,12.238z M19.511,7.336l-8.325-4.662c-0.652-0.365-1.72-0.365-2.372,0
  L0.488,7.336c-0.652,0.365-0.652,0.963,0,1.328l8.325,4.662c0.652,0.365,1.72,0.365,2.372,0l5.382-3.014l-5.836-1.367
  C10.506,9,10.259,9.031,10,9.031c-1.052,0-1.904-0.506-1.904-1.131c0-0.627,0.853-1.133,1.904-1.133c0.816,0,1.51,0.307,1.78,0.734
  l6.182,2.029l1.549-0.867C20.162,8.299,20.162,7.701,19.511,7.336z M16.967,16.17c-0.065,0.385,1.283,1.018,1.411-0.107
  c0.579-5.072-0.416-6.531-0.416-6.531l-1.395,0.781C16.567,10.312,17.75,11.438,16.967,16.17z"/></symbol>

  <symbol id="assignment" fill-rule="evenodd" viewBox="0 0 20 29"><path d="M17.8453125,6.07723312 L17.8453125,26.9110839 L1.8659375,26.9110839 L1.8659375,28.7990196 L19.689375,28.7990196 L19.689375,6.07723312 L17.8453125,6.07723312 Z M16.92375,4.18993736 L14.690625,4.18993736 L14.7309375,10.781073 C14.7309375,11.8248775 13.9034375,12.6715686 12.8871875,12.6715686 C11.8709375,12.6715686 11.0434375,11.8248775 11.0434375,10.7836329 L11.0434375,5.96971678 L11.965625,5.96971678 L11.965625,10.7833129 C11.965625,11.3039352 12.37875,11.7276008 12.8871875,11.7276008 C13.395625,11.7276008 13.809375,11.3039352 13.809375,10.7833129 L13.7684375,4.18993736 L10.99375,4.18993736 L10.99375,2.64502996 C10.99375,1.86393655 11.61375,1.22875817 12.376875,1.22875817 C13.1390625,1.22875817 13.759375,1.86361656 13.759375,2.64758987 L13.7684375,4.18993736 L14.690625,4.18993736 L14.6815625,2.64502996 C14.6815625,1.34395425 13.6475,0.285110294 12.376875,0.285110294 C11.106875,0.285110294 10.0721875,1.34395425 10.0721875,2.64502996 L10.0721875,4.18993736 L0.021875,4.18993736 L0.021875,25.966796 L16.92375,25.966796 L16.92375,4.18993736 Z"></path></symbol>

  <symbol id="discussion" fill-rule="evenodd" viewBox="0 0 20 20"><path d="M5.8,12.2V6H2C0.9,6,0,6.9,0,8v6c0,1.1,0.9,2,2,2h1v3l3-3h5c1.1,0,2-0.9,2-2v-1.82c-0.064,0.014-0.132,0.021-0.2,0.021h-7 V12.2z M18,1H9C7.9,1,7,1.9,7,3v8h7l3,3v-3h1c1.1,0,2-0.899,2-2V3C20,1.9,19.1,1,18,1z"/></symbol>

  <symbol id="message" fill-rule="evenodd" viewBox="0 0 20 20"><path d="M18,6v7c0,1.1-0.9,2-2,2h-4v3l-4-3H4c-1.101,0-2-0.9-2-2V6c0-1.1,0.899-2,2-2h12C17.1,4,18,4.9,18,6z"/></symbol>

  <symbol id="new-message" fill-rule="evenodd" viewBox="0 0 20 20"><path d="M18.174,1.826c-1.102-1.102-2.082-0.777-2.082-0.777L7.453,9.681L6,14l4.317-1.454l8.634-8.638 C18.951,3.908,19.275,2.928,18.174,1.826z M10.605,11.605l-0.471,0.47l-1.473,0.5c-0.104-0.24-0.234-0.477-0.498-0.74 c-0.264-0.264-0.5-0.394-0.74-0.498l0.5-1.473l0.471-0.47c0,0,0.776-0.089,1.537,0.673C10.693,10.828,10.605,11.605,10.605,11.605z M16,17H3V4h5l2-2H3C1.9,2,1,2.9,1,4v13c0,1.1,0.9,2,2,2h13c1.1,0,2-0.9,2-2v-7l-2,2V17z"/></symbol>

  <symbol id="envelope" fill-rule="evenodd" viewBox="0 0 20 20"><path d="M1.574,5.286c0.488,0.262,7.248,3.894,7.5,4.029C9.326,9.45,9.652,9.514,9.98,9.514c0.328,0,0.654-0.064,0.906-0.199 s7.012-3.767,7.5-4.029C18.875,5.023,19.337,4,18.44,4H1.521C0.624,4,1.086,5.023,1.574,5.286z M18.613,7.489 c-0.555,0.289-7.387,3.849-7.727,4.027s-0.578,0.199-0.906,0.199s-0.566-0.021-0.906-0.199S1.941,7.777,1.386,7.488 C0.996,7.284,1,7.523,1,7.707S1,15,1,15c0,0.42,0.566,1,1,1h16c0.434,0,1-0.58,1-1c0,0,0-7.108,0-7.292S19.004,7.285,18.613,7.489z"/></symbol>

  <symbol id="notification" fill-rule="evenodd" viewBox="0 0 20 20"><path d="M18.69,12.344l-1.727-1.538c-0.5-0.445-0.5-1.174,0-1.619l1.727-1.539c0.5-0.445,0.367-0.859-0.296-0.924l-2.29-0.217 c-0.662-0.062-1.02-0.633-0.791-1.266l1.215-3.383c0.228-0.635-0.051-0.865-0.619-0.514l-2.701,1.67 c-0.568,0.354-1.303,0.16-1.631-0.426l-0.978-1.746c-0.329-0.588-0.872-0.59-1.207-0.008l-0.909,1.58 C8.146,2.999,7.375,3.247,6.77,2.97l-1.6-0.734C4.562,1.956,4.097,2.278,4.133,2.952l0.086,1.615 c0.037,0.674-0.461,1.367-1.104,1.541L1.57,6.522C0.928,6.696,0.81,7.202,1.31,7.647l1.727,1.539c0.5,0.445,0.5,1.174,0,1.619 L1.31,12.344c-0.5,0.445-0.368,0.877,0.293,0.957l2.095,0.254c0.661,0.08,1.029,0.67,0.818,1.311l-1.074,3.258 c-0.211,0.641,0.09,0.889,0.668,0.555l2.463-1.426c0.578-0.334,1.356-0.15,1.729,0.408l1.022,1.539 c0.372,0.559,0.931,0.529,1.24-0.068l0.899-1.733c0.31-0.598,1.052-0.842,1.648-0.543l1.734,0.867 c0.598,0.297,1.057-0.01,1.021-0.682l-0.087-1.617c-0.035-0.674,0.461-1.365,1.106-1.539l1.543-0.416 C19.072,13.295,19.19,12.789,18.69,12.344z M11,14H9v-2h2V14z M11,11H9V6h2V11z"/></symbol>

  <symbol id="award" fill-rule="evenodd" viewBox="0 0 20 20"><path d="M11.18,14.356c0-1.451,1.1-2.254,2.894-3.442C16.268,9.458,19,7.649,19,3.354c0-0.387-0.317-0.699-0.709-0.699h-3.43 C14.377,1.759,12.932,0.8,10,0.8c-2.934,0-4.377,0.959-4.862,1.855H1.707C1.316,2.655,1,2.968,1,3.354 c0,4.295,2.73,6.104,4.926,7.559c1.794,1.188,2.894,1.991,2.894,3.442v1.311c-1.884,0.209-3.269,0.906-3.269,1.736 c0,0.994,1.992,1.799,4.449,1.799c2.457,0,4.449-0.805,4.449-1.799c0-0.83-1.385-1.527-3.269-1.736V14.356z M13.957,9.3 c0.566-1.199,1.016-2.826,1.088-5.246h2.51C17.315,6.755,15.693,8.118,13.957,9.3z M10,2.026c2.732-0.002,3.799,1.115,3.798,1.529 c0,0.418-1.066,1.533-3.798,1.535C7.268,5.089,6.201,3.974,6.201,3.556C6.2,3.142,7.268,2.024,10,2.026z M2.445,4.054h2.509 C5.027,6.474,5.475,8.101,6.043,9.3C4.307,8.118,2.684,6.755,2.445,4.054z"/></symbol>

  <symbol id="eye" fill-rule="evenodd" viewBox="0 0 20 20"><path d="M10,4.4C3.439,4.4,0,9.232,0,10c0,0.766,3.439,5.6,10,5.6c6.56,0,10-4.834,10-5.6C20,9.232,16.56,4.4,10,4.4z M10,14.307 c-2.455,0-4.445-1.928-4.445-4.307c0-2.379,1.99-4.309,4.445-4.309c2.455,0,4.444,1.93,4.444,4.309 C14.444,12.379,12.455,14.307,10,14.307z M10,10c-0.407-0.447,0.663-2.154,0-2.154c-1.228,0-2.223,0.965-2.223,2.154 c0,1.189,0.995,2.154,2.223,2.154c1.227,0,2.223-0.965,2.223-2.154C12.223,9.453,10.346,10.379,10,10z"/></symbol>

  <symbol id="eye-closed" fill-rule="evenodd" viewBox="0 0 20 20"><path d="M18.5214844,1.4776001C18.131958,1.086853,17.4981079,1.086792,17.1074829,1.477478L1.4785156,17.1084595 c-0.390625,0.390625-0.390625,1.0244141,0.0001221,1.4140015c0.390625,0.390686,1.0233765,0.390625,1.4140015-0.000061 L18.5214233,2.8916016C18.9121704,2.5009766,18.9121704,1.8682251,18.5214844,1.4776001z M3.1083984,13.4973145l2.5593262-2.5584717 C5.5981445,10.6357422,5.5546875,10.3234863,5.5546875,10c0-2.3789062,1.9902344-4.3085938,4.4453125-4.3085938 c0.2861328,0,0.5644531,0.0314941,0.8354492,0.081665l1.2021484-1.2016602C11.394043,4.467041,10.7192383,4.4003906,10,4.4003906 C3.4394531,4.4003906,0,9.2324219,0,10C0,10.4234619,1.057373,12.0908203,3.1083984,13.4973145z M16.8950195,6.5046387 L14.3330078,9.065918C14.4018555,9.3674316,14.4443359,9.6784668,14.4443359,10 c0,2.3789062-1.9892578,4.3066406-4.4443359,4.3066406c-0.2839355,0-0.5598145-0.0317383-0.8288574-0.0810547L7.967041,15.4291992 C8.609375,15.5330811,9.2827148,15.5996094,10,15.5996094c6.5605469,0,10-4.8339844,10-5.5996094 C20,9.5756836,18.9438477,7.9101562,16.8950195,6.5046387z"/></symbol>

  <symbol id="download" fill-rule="evenodd" viewBox="0 0 20 20"><path d="M15,7h-3V1H8v6H5l5,5L15,7z M19.338,13.532c-0.21-0.224-1.611-1.723-2.011-2.114C17.062,11.159,16.683,11,16.285,11h-1.757 l3.064,2.994h-3.544c-0.102,0-0.194,0.052-0.24,0.133L12.992,16H7.008l-0.816-1.873c-0.046-0.081-0.139-0.133-0.24-0.133H2.408 L5.471,11H3.715c-0.397,0-0.776,0.159-1.042,0.418c-0.4,0.392-1.801,1.891-2.011,2.114c-0.489,0.521-0.758,0.936-0.63,1.449 l0.561,3.074c0.128,0.514,0.691,0.936,1.252,0.936h16.312c0.561,0,1.124-0.422,1.252-0.936l0.561-3.074 C20.096,14.468,19.828,14.053,19.338,13.532z"/></symbol>

  <symbol id="students" fill-rule="evenodd" viewBox="0 0 20 20"><path d="M15.989,19.129c0-2.246-2.187-3.389-4.317-4.307c-2.123-0.914-2.801-1.684-2.801-3.334c0-0.989,0.648-0.667,0.932-2.481 c0.12-0.752,0.692-0.012,0.802-1.729c0-0.684-0.313-0.854-0.313-0.854s0.159-1.013,0.221-1.793c0.064-0.817-0.398-2.56-2.301-3.095 C7.88,1.195,7.655,0.654,8.679,0.112c-2.24-0.104-2.761,1.068-3.954,1.93c-1.015,0.756-1.289,1.953-1.24,2.59 c0.065,0.78,0.223,1.793,0.223,1.793s-0.314,0.17-0.314,0.854c0.11,1.718,0.684,0.977,0.803,1.729 C4.481,10.822,5.13,10.5,5.13,11.489c0,1.65-0.212,2.21-2.336,3.124C0.663,15.53,0,17,0.011,19.129C0.014,19.766,0,20,0,20h16 C16,20,15.989,19.766,15.989,19.129z M18.528,13.365c-1.135-0.457-1.605-1.002-1.605-2.066c0-0.641,0.418-0.432,0.602-1.603 c0.077-0.484,0.447-0.008,0.518-1.115c0-0.441-0.202-0.551-0.202-0.551s0.103-0.656,0.143-1.159c0.05-0.627-0.364-2.247-2.268-2.247 c-1.903,0-2.318,1.62-2.269,2.247c0.042,0.502,0.144,1.159,0.144,1.159s-0.202,0.109-0.202,0.551 c0.071,1.107,0.441,0.631,0.518,1.115c0.184,1.172,0.602,0.963,0.602,1.603c0,1.064-0.438,1.562-1.809,2.152 c-0.069,0.029-0.12,0.068-0.183,0.102c1.64,0.712,4.226,1.941,4.838,4.447H20c0,0,0-1.906,0-2.318 C20,14.682,19.727,13.848,18.528,13.365z"/></symbol>

  <symbol id="credit-card" fill-rule="evenodd" viewBox="0 0 20 20"><path d="M0,13.75 C0,14.440625 0.559375,15 1.25,15 L18.75,15 C19.440625,15 20,14.440625 20,13.75 L20,6.25 L0,6.25 L0,13.75 L0,13.75 Z M2.5,8.75 L10,8.75 L10,10 L2.5,10 L2.5,8.75 L2.5,8.75 Z"/><path d="M18.75,0 L1.25,0 C0.559375,0 0,0.559375 0,1.25 L0,3.75 L20,3.75 L20,1.25 C20,0.559375 19.440625,0 18.75,0 L18.75,0 Z"/></symbol>

  <symbol id="paypal" fill-rule="evenodd" viewBox="0 0 20 20"><path d="M4.96376134,8.96272122 L6.43324734,8.96272122 C9.62554847,8.96272122 11.4369402,7.45951811 12.0135739,4.36882877 C12.032175,4.26694809 12.0490046,4.16877216 12.0631768,4.07059624 C12.0950644,3.86127775 12.1110082,3.67326159 12.1180943,3.49265493 C12.1234089,3.36854574 12.126952,3.29537688 12.1260662,3.22683897 C12.1189801,2.86469947 12.0578623,2.55813124 11.9347408,2.26452965 C11.8204769,1.990378 11.6477525,1.72085729 11.3917661,1.41428907 C10.6362076,0.515886713 9.31995915,0 7.74772428,0 L2.74048836,0 C2.38795344,0 2.08767872,0.268594518 2.03276122,0.6325864 L1.12927977,6.71856771 L0.00524255523,14.2994164 C-0.0355026866,14.5726419 0.16645199,14.8190079 0.430410296,14.8190079 L2.885754,14.8190079 L3.63776944,10.1482419 C3.74140408,9.46286274 4.29943674,8.96272122 4.96376134,8.96272122 L4.96376134,8.96272122 Z"/><path d="M6.43236158,10.060254 L4.96376134,10.060254 C4.81849569,10.060254 4.69625997,10.1695442 4.67323005,10.321439 L3.69445848,16.6713839 L6.26938061,16.6713839 C6.57762722,16.6713839 6.84069976,16.4370583 6.88853113,16.1184497 L6.91421835,15.9795215 L7.40581855,12.7248969 L7.43770613,12.5452164 C7.4855375,12.2266077 7.74861004,11.9922822 8.05685665,11.9922822 L8.44659375,11.9922822 C10.9710272,11.9922822 12.9471714,10.9197565 13.524691,7.81887905 C13.7620763,6.54073962 13.6416121,5.47191867 13.0268904,4.71429689 C12.3253636,8.20695182 10.0533735,10.060254 6.43236158,10.060254 Z"/></symbol>

  <symbol id="image" fill-rule="evenodd" viewBox="0 0 20 20"><path fill-rule="evenodd" clip-rule="evenodd" d="M19,2H1C0.447,2,0,2.447,0,3v14c0,0.552,0.447,1,1,1h18c0.553,0,1-0.448,1-1V3 C20,2.448,19.553,2,19,2z M18,16H2V4h16V16z M14.315,10.877l-3.231,1.605L7.314,6.381L4,14h12L14.315,10.877z M13.25,9 c0.69,0,1.25-0.56,1.25-1.25S13.94,6.5,13.25,6.5S12,7.06,12,7.75S12.56,9,13.25,9z"/></symbol>

  <symbol id="menu" fill-rule="evenodd" viewBox="0 0 20 20"><path d="M16.4,9H3.6C3.048,9,3,9.447,3,10c0,0.553,0.048,1,0.6,1H16.4c0.552,0,0.6-0.447,0.6-1C17,9.447,16.952,9,16.4,9z M16.4,13 H3.6C3.048,13,3,13.447,3,14c0,0.553,0.048,1,0.6,1H16.4c0.552,0,0.6-0.447,0.6-1C17,13.447,16.952,13,16.4,13z M3.6,7H16.4 C16.952,7,17,6.553,17,6c0-0.553-0.048-1-0.6-1H3.6C3.048,5,3,5.447,3,6C3,6.553,3.048,7,3.6,7z"/></symbol>

  <symbol id="facebook" fill-rule="evenodd" viewBox="0 0 20 20"><path d="M10,0.4c-5.302,0-9.6,4.298-9.6,9.6s4.298,9.6,9.6,9.6s9.6-4.298,9.6-9.6S15.302,0.4,10,0.4z M12.274,7.034h-1.443 c-0.171,0-0.361,0.225-0.361,0.524V8.6h1.805l-0.273,1.486H10.47v4.461H8.767v-4.461H7.222V8.6h1.545V7.726 c0-1.254,0.87-2.273,2.064-2.273h1.443V7.034z"/></symbol>
  <symbol id="twitter" fill-rule="evenodd" viewBox="0 0 20 20"><path d="M10,0.4c-5.302,0-9.6,4.298-9.6,9.6s4.298,9.6,9.6,9.6s9.6-4.298,9.6-9.6S15.302,0.4,10,0.4z M13.905,8.264 c0.004,0.082,0.005,0.164,0.005,0.244c0,2.5-1.901,5.381-5.379,5.381c-1.068,0-2.062-0.312-2.898-0.85 c0.147,0.018,0.298,0.025,0.451,0.025c0.886,0,1.701-0.301,2.348-0.809c-0.827-0.016-1.525-0.562-1.766-1.312 c0.115,0.021,0.233,0.033,0.355,0.033c0.172,0,0.34-0.023,0.498-0.066c-0.865-0.174-1.517-0.938-1.517-1.854V9.033 C6.257,9.174,6.549,9.26,6.859,9.27C6.351,8.93,6.018,8.352,6.018,7.695c0-0.346,0.093-0.672,0.256-0.951 c0.933,1.144,2.325,1.896,3.897,1.977c-0.033-0.139-0.049-0.283-0.049-0.432c0-1.043,0.846-1.891,1.891-1.891 c0.543,0,1.035,0.23,1.38,0.598c0.431-0.086,0.835-0.242,1.2-0.459c-0.141,0.441-0.44,0.812-0.831,1.047 c0.383-0.047,0.747-0.148,1.086-0.299C14.595,7.664,14.274,7.998,13.905,8.264z"/></symbol>
  <symbol id="pinterest" fill-rule="evenodd" viewBox="0 0 20 20"><path d="M10,0.4c-5.302,0-9.6,4.298-9.6,9.6s4.298,9.6,9.6,9.6s9.6-4.298,9.6-9.6S15.302,0.4,10,0.4z M10.657,12.275 c-0.616-0.047-0.874-0.352-1.356-0.644c-0.265,1.391-0.589,2.725-1.549,3.422c-0.297-2.104,0.434-3.682,0.774-5.359 C7.947,8.719,8.595,6.758,9.817,7.24c1.503,0.596-1.302,3.625,0.581,4.004c1.966,0.394,2.769-3.412,1.55-4.648 c-1.762-1.787-5.127-0.041-4.713,2.517c0.1,0.625,0.747,0.815,0.258,1.678c-1.127-0.25-1.464-1.139-1.42-2.324 c0.069-1.94,1.743-3.299,3.421-3.486c2.123-0.236,4.115,0.779,4.391,2.777C14.194,10.012,12.926,12.451,10.657,12.275z"/></symbol>
  <symbol id="linkedin" fill-rule="evenodd" viewBox="0 0 20 20"><path d="M10,0.4c-5.302,0-9.6,4.298-9.6,9.6s4.298,9.6,9.6,9.6s9.6-4.298,9.6-9.6S15.302,0.4,10,0.4z M7.65,13.979H5.706V7.723H7.65 V13.979z M6.666,6.955c-0.614,0-1.011-0.435-1.011-0.973c0-0.549,0.409-0.971,1.036-0.971c0.627,0,1.011,0.422,1.023,0.971 C7.714,6.52,7.318,6.955,6.666,6.955z M14.75,13.979h-1.944v-3.467c0-0.807-0.282-1.355-0.985-1.355 c-0.537,0-0.856,0.371-0.997,0.728c-0.052,0.127-0.065,0.307-0.065,0.486v3.607H8.814v-4.26c0-0.781-0.025-1.434-0.051-1.996h1.689 l0.089,0.869h0.039c0.256-0.408,0.883-1.01,1.932-1.01c1.279,0,2.238,0.857,2.238,2.699V13.979z"/></symbol>
  <symbol id="ticket" fill-rule="evenodd" viewBox="0 0 20 20"><path d="M4.906,11.541l3.551,3.553l6.518-6.518l-3.553-3.551L4.906,11.541z M19.104,6.664l-1.511-1.512c-0.289,0.156-0.618,0.246-0.969,0.246c-1.118,0-2.024-0.906-2.024-2.023c0-0.352,0.089-0.682,0.246-0.969l-1.511-1.512c-0.394-0.393-1.038-0.393-1.432,0l-11.01,11.01c-0.393,0.392-0.393,1.037,0,1.432l1.512,1.51C2.694,14.69,3.023,14.6,3.375,14.6c1.117,0,2.023,0.906,2.023,2.025c0,0.35-0.089,0.68-0.246,0.969l1.512,1.51c0.394,0.394,1.037,0.394,1.432,0L19.104,8.096C19.498,7.701,19.498,7.057,19.104,6.664z M8.457,16.719l-5.176-5.178l8.142-8.141l5.176,5.176L8.457,16.719z"/></symbol>
  <symbol id="user" fill-rule="evenodd" viewBox="0 0 20 20"><path d="M7.725,2.146c-1.016,0.756-1.289,1.953-1.239,2.59C6.55,5.515,6.708,6.529,6.708,6.529s-0.313,0.17-0.313,0.854C6.504,9.1,7.078,8.359,7.196,9.112c0.284,1.814,0.933,1.491,0.933,2.481c0,1.649-0.68,2.42-2.803,3.334C3.196,15.845,1,17,1,19v1h18v-1c0-2-2.197-3.155-4.328-4.072c-2.123-0.914-2.801-1.684-2.801-3.334c0-0.99,0.647-0.667,0.932-2.481c0.119-0.753,0.692-0.012,0.803-1.729c0-0.684-0.314-0.854-0.314-0.854s0.158-1.014,0.221-1.793c0.065-0.817-0.398-2.561-2.3-3.096c-0.333-0.34-0.558-0.881,0.466-1.424C9.439,0.112,8.918,1.284,7.725,2.146z"/></symbol>
  <symbol id="star" fill-rule="evenodd" viewBox="0 0 20 20"><path d="M10,1.3l2.388,6.722H18.8l-5.232,3.948l1.871,6.928L10,14.744l-5.438,4.154l1.87-6.928L1.199,8.022h6.412L10,1.3z"/>
  </symbol>
  <symbol id="present" fill-rule="evenodd" viewBox="0 0 20 20">
  <path d="M15.1671933,2.85349222 C15.4677733,2.25657322 15.37936,1.60814955 14.9283,0.92226795 L14.8992089,0.87901295 C14.44228,0.29172599 13.8902667,0 13.3469933,0 C12.3245822,0 11.4713556,0.996693306 10.6447711,1.9631973 C10.23758,2.43998334 9.84744667,2.89331358 9.48906444,3.16051354 C9.13064,2.89331358 8.74050667,2.44002793 8.33335778,1.9631973 C7.50677333,0.996648713 6.65354667,0 5.63113556,0 C5.08790444,0 4.53589111,0.29172599 4.07892,0.87901295 L4.04982889,0.92226795 C3.59872667,1.60814955 3.51031333,2.25657322 3.81089333,2.85349222 C3.92742667,3.07217523 4.10885556,3.25875144 4.34454,3.41968679 L0,3.41968679 L0,7.81974593 L9.48902222,7.81974593 L18.9780444,7.81974593 L18.9780444,3.41968679 L14.6335467,3.41968679 C14.8692311,3.25875144 15.05066,3.07217523 15.1671933,2.85349222 Z M4.52993778,1.26286763 C4.90005778,0.824208419 5.26126889,0.610653578 5.63037556,0.610653578 C6.39552667,0.610653578 7.1611,1.50763742 7.90319778,2.37322794 C8.22505778,2.7504383 8.53729111,3.11543023 8.84889111,3.40519414 C8.78534667,3.40943045 8.71606,3.41464781 8.6488,3.41999894 L6.55985556,3.41999894 C5.38772444,3.40452525 4.56422222,3.02281102 4.3149,2.55405168 C4.10813778,2.12997431 4.27457778,1.62438133 4.52993778,1.26286763 Z M9.48902222,7.22773214 L8.41944889,7.22773214 L8.41944889,4.25223406 L9.48902222,4.25223406 L10.5585956,4.25223406 L10.5585956,7.22773214 L9.48902222,7.22773214 Z M10.3292444,3.41999894 C10.2619422,3.41464781 10.1926978,3.40943045 10.1291533,3.40519414 C10.4407533,3.11543023 10.7529444,2.7504383 11.0748044,2.37322794 C11.8169022,1.50763742 12.5825178,0.610653578 13.3476267,0.610653578 C13.7167333,0.610653578 14.0779444,0.824208419 14.4480644,1.26286763 C14.7034244,1.62438133 14.8698222,2.12997431 14.6631022,2.55405168 C14.4138644,3.02281102 13.59032,3.40452525 12.4181889,3.41999894 L10.3292444,3.41999894 Z M10.5588911,19.4052342 L9.48902222,19.4052342 L8.41915333,19.4052342 L8.41915333,8.47173702 L1.09233111,8.47173702 L1.09233111,19.9232196 L9.48902222,19.9232196 L17.8857133,19.9232196 L17.8857133,8.47173702 L10.5588911,8.47173702 L10.5588911,19.4052342 Z" />
  </symbol>
</svg>
